<svg width="40" height="40" viewBox="0 0 40 40" fill="none" xmlns="http://www.w3.org/2000/svg">
  <path fill-rule="evenodd" clip-rule="evenodd" d="M31.0937 3.43016C26.8182 0.54872 21.4288 -0.626501 16.3567 0.323145C11.6472 1.1484 7.29308 3.77919 4.32307 7.53322C1.51129 11.0886 -0.095841 15.6196 0.00871038 20.1692C-0.0199719 25.0362 1.92672 29.8132 5.14654 33.4261C5.83399 31.7933 6.71202 30.2486 7.67427 28.7643C7.38108 28.7626 7.08771 28.7665 6.79441 28.7705C6.1464 28.7791 5.49874 28.7878 4.85416 28.7356C4.6047 28.6412 4.49409 28.4013 4.38569 28.1662C4.33728 28.0612 4.28932 27.9572 4.22963 27.8675C3.29698 25.9897 2.68541 23.952 2.48927 21.8624C4.31104 21.8596 6.1319 21.8596 7.9537 21.8652C8.10357 23.6902 8.34599 25.5049 8.74848 27.2929C8.98792 26.9726 9.25583 26.6731 9.52341 26.374C9.92584 25.9242 10.3275 25.4753 10.6304 24.9574C10.5951 24.2901 10.5109 23.6282 10.4267 22.9671C10.3805 22.6045 10.3344 22.2421 10.2964 21.8791C11.5482 21.8503 12.7973 21.8577 14.0491 21.8661C14.9007 21.1275 15.7882 20.4288 16.6744 19.7311C16.7829 19.6457 16.8913 19.5603 16.9997 19.4748C15.4037 19.4557 13.809 19.4595 12.2145 19.4633C11.5637 19.4649 10.913 19.4665 10.2622 19.4665C10.3399 17.0278 10.6276 14.5845 11.2993 12.2323C13.7586 12.2452 16.2179 12.2425 18.6771 12.2323C18.7004 13.4909 18.6977 14.7496 18.695 16.0083C18.6935 16.7529 18.6919 17.4974 18.6957 18.242C19.5006 17.6544 20.313 17.0724 21.1235 16.4931C21.1252 15.9664 21.1252 15.4401 21.1253 14.9139C21.1254 14.023 21.1255 13.1323 21.1337 12.2406C21.8447 12.2373 22.5558 12.2389 23.2669 12.2404C24.3751 12.2429 25.4832 12.2453 26.5907 12.2295C27.7593 11.0598 28.875 9.82239 29.7059 8.38261C29.0156 6.81193 28.1404 5.33595 27.1449 3.94627C28.3754 4.53111 29.5413 5.24496 30.634 6.06558C30.8587 5.20041 31.0051 4.31945 31.0937 3.43016ZM12.0442 9.84374C13.7065 9.86325 15.3671 9.85925 17.029 9.85524L17.0302 9.85523C17.5834 9.8539 18.1367 9.85256 18.6902 9.8521C18.6906 9.25653 18.6919 8.66084 18.6933 8.06511V8.06485C18.6974 6.2028 18.7015 4.3402 18.6791 2.47866C15.3186 3.53505 13.322 6.75531 12.0442 9.84374ZM21.1223 6.47748V6.47713V6.47701C21.1167 5.1475 21.1111 3.81777 21.1392 2.48885C24.4951 3.53784 26.4973 6.75716 27.749 9.85209C25.5377 9.85673 23.3264 9.85673 21.1161 9.85396C21.1317 8.72911 21.127 7.60348 21.1223 6.47769V6.47758V6.47748ZM5.56565 9.8363C6.90077 9.86787 8.23681 9.87807 9.57193 9.83446C10.2927 7.70495 11.3622 5.71189 12.6974 3.91101C9.8754 5.25331 7.38189 7.28164 5.56565 9.8363ZM2.36162 19.4562C3.46482 19.464 4.56836 19.4635 5.67202 19.463C6.42145 19.4627 7.17094 19.4624 7.92042 19.4646C7.93616 17.026 8.34418 14.6217 8.79846 12.235L8.40984 12.2372H8.40974C7.00528 12.2452 5.60081 12.2532 4.19635 12.2193C3.04351 14.4509 2.47357 16.9554 2.36162 19.4562Z" fill="#3B3B3B"/>
  <path d="M30.6186 10.4719C31.8507 8.78247 32.582 6.77454 32.8953 4.71387C36.3312 7.73082 38.7856 11.8864 39.5667 16.4124C40.7442 22.7138 38.6033 29.4976 34.0646 34.0107C33.7588 33.2413 33.485 32.4471 33.4907 31.6102C33.3705 29.0365 35.0186 26.8092 35.0677 24.2571C34.3595 27.2361 32.0337 29.4718 31.2323 32.4054C30.8404 33.6892 31.0522 35.0279 31.3367 36.3091C29.9161 37.2404 28.4177 38.0588 26.8148 38.6337C26.6613 37.1534 26.6872 35.6286 27.1856 34.2114C28.5822 29.8919 31.8119 26.5187 33.6737 22.4268C34.17 21.3623 34.4704 20.2199 34.6026 19.0563C34.0517 20.6097 33.279 22.0917 32.1901 23.3396C29.7849 26.153 26.765 28.4071 24.6416 31.4639C22.8954 33.8801 21.9027 36.8138 21.8195 39.7946C20.2295 39.8936 18.6285 39.889 17.0571 39.6279C17.5193 36.9867 18.451 34.4298 19.8348 32.1331C22.2031 28.1767 25.5873 25.0023 28.6627 21.6187C31.3442 18.6536 33.9657 15.1293 34.0074 10.9524C33.5396 12.6002 32.8213 14.1841 31.7638 15.5412C29.5214 18.4619 26.3933 20.4884 23.487 22.6805C20.1528 25.1273 16.923 27.8555 14.6121 31.3278C13.2339 33.3542 12.1893 35.5973 11.4369 37.9302C9.68516 37.1331 8.09709 36.0212 6.65137 34.7604C7.93532 31.5472 9.85525 28.5951 12.2605 26.1113C15.3645 22.7823 19.1526 20.2171 22.8215 17.563C25.6574 15.4922 28.5664 13.3741 30.6186 10.4719Z" fill="#3D6A37"/>
</svg>
