<svg width="75" height="35" xmlns="http://www.w3.org/2000/svg">

 <g>
  <title>background</title>
  <rect fill="none" id="canvas_background" height="37" width="77" y="-1" x="-1"/>
 </g>
 <g>
  <title>Layer 1</title>
  <path id="svg_1" fill-rule="evenodd" clip-rule="evenodd" d="m7.300388,20.115652l8.0428,0l1.0828,3.405l5.4137,0l-7.3627,-21.66978l-6.3105,0l-7.3625,21.66978l5.4136,0l1.0828,-3.405zm4.0214,-12.5986l2.5373,7.9559l-5.0735,0l2.5362,-7.9559z" fill="#3B3B3B"/>
  <path id="svg_2" d="m29.416388,12.501452l0,5.479c0,1.3309 1.144,1.4557 3.1871,1.3309l0,4.2104c-6.0633,0.6184 -7.8264,-1.2072 -7.8264,-5.5413l0,-5.479l-2.475,0l0,-4.4579l2.475,0l0,-2.94202l4.6406,-1.3933l0,4.33422l3.187,0l0,4.4578l-3.1883,0l0,0.0012z" fill="#3B3B3B"/>
  <path id="svg_3" d="m34.612488,0.922802l4.6405,0l0,22.59785l-4.6405,0l0,-22.59785z" fill="#3B3B3B"/>
  <path id="svg_4" fill-rule="evenodd" clip-rule="evenodd" d="m53.882788,23.521752l4.6411,0l0,-15.4782l-4.6411,0l0,1.4546c-1.0205,-1.1766 -2.536,-1.888 -4.6089,-1.888c-4.0529,0 -7.3929,3.5604 -7.3929,8.1725c0,4.6122 3.3411,8.1726 7.3929,8.1726c2.0729,0 3.5884,-0.7126 4.6089,-1.8879l0,1.4544zm-3.6809,-11.5161c2.1342,0 3.6809,1.4557 3.6809,3.777c0,2.3215 -1.5467,3.7772 -3.6809,3.7772c-2.1351,0 -3.6818,-1.4546 -3.6818,-3.7772c0,-2.3225 1.5467,-3.777 3.6818,-3.777z" fill="#3B3B3B"/>
  <path id="svg_5" d="m73.772888,18.877852c0,3.5604 -3.095,5.0774 -6.435,5.0774c-3.093,0 -5.444,-1.1766 -6.651,-3.684l4.023,-2.2908c0.401,1.1765 1.267,1.8267 2.628,1.8267c1.114,0 1.67,-0.3404 1.67,-0.9599c0,-1.7031 -7.61,-0.8056 -7.61,-6.1609c0,-3.3743 2.847,-5.0762 6.063,-5.0762c2.505,0 4.733,1.1142 6.032,3.3119l-3.959,2.1365c-0.434,-0.8056 -1.053,-1.3627 -2.073,-1.3627c-0.804,0 -1.3,0.3098 -1.3,0.8668c0.002,1.7643 7.612,0.5878 7.612,6.3152z" fill="#3B3B3B"/>
  <path id="svg_8" fill-rule="evenodd" clip-rule="evenodd" d="m4.519388,33.685952c0.7191,0 1.3499,-0.2097 1.8665,-0.5783l0.7356,0.6573l0.692,-0.7715l-0.7014,-0.596c0.4036,-0.5358 0.6226,-1.1931 0.6226,-1.8856l0,-0.0176c0,-1.7278 -1.3135,-3.1564 -3.1976,-3.1564c-1.8831,0 -3.2153,1.4463 -3.2153,3.174l0,0.0177c0,1.7278 1.3134,3.1564 3.1976,3.1564zm0.0188,-2.1824l1.0509,0.8939c-0.2895,0.185 -0.6484,0.2992 -1.0509,0.2992c-1.218,0 -2.0854,-0.9916 -2.0854,-2.1836l0,-0.0176c0,-1.1931 0.8497,-2.166 2.0678,-2.166c1.2181,0 2.0854,0.9917 2.0854,2.1836l0,0.0176c0,0.43 -0.1048,0.8245 -0.3154,1.1484l-1.0604,-0.9646l-0.692,0.7891z" fill="#3B3B3B"/>
  <path id="svg_9" d="m13.324688,30.977152l0,-3.5334l1.078,0l0,3.4898c0,1.1401 0.5873,1.7537 1.5512,1.7537c0.9544,0 1.5417,-0.5783 1.5417,-1.7101l0,-3.5334l1.0781,0l0,3.4815c0,1.8327 -1.0345,2.7536 -2.6374,2.7536c-1.596,-0.0011 -2.6116,-0.9209 -2.6116,-2.7017z" fill="#3B3B3B"/>
  <path id="svg_10" fill-rule="evenodd" clip-rule="evenodd" d="m27.386288,27.400252l-0.9992,0l-2.6986,6.1821l1.1039,0l0.6308,-1.4817l2.8999,0l0.6225,1.4817l1.1393,0l-2.6986,-6.1821zm-0.5167,1.2884l1.0604,2.4557l-2.1113,0l1.0509,-2.4557z" fill="#3B3B3B"/>
  <path id="svg_11" d="m35.516388,27.443752l0.9992,0l3.2858,4.2436l0,-4.2436l1.0604,0l0,6.1374l-0.9027,0l-3.3824,-4.3672l0,4.3672l-1.0603,0l0,-6.1374z" fill="#3B3B3B"/>
  <path id="svg_12" d="m48.325388,28.443652l-1.9458,0l0,-0.9999l4.9778,0l0,0.9999l-1.9458,0l0,5.1387l-1.0862,0l0,-5.1387z" fill="#3B3B3B"/>
  <path id="svg_13" d="m56.780588,30.977152l0,-3.5334l1.0773,0l0,3.4898c0,1.1401 0.588,1.7537 1.552,1.7537c0.954,0 1.541,-0.5783 1.541,-1.7101l0,-3.5334l1.079,0l0,3.4815c0,1.8327 -1.035,2.7536 -2.638,2.7536c-1.596,-0.0011 -2.6113,-0.9209 -2.6113,-2.7017z" fill="#3B3B3B"/>
  <path id="svg_14" d="m67.888888,27.443752l1.148,0l1.866,2.9021l1.867,-2.9021l1.148,0l0,6.1374l-1.079,0l0,-4.4013l-1.936,2.8938l-0.035,0l-1.918,-2.8762l0,4.3837l-1.061,0l0,-6.1374z" fill="#3B3B3B"/>
 </g>
</svg>