<svg width="120" height="40" xmlns="http://www.w3.org/2000/svg">
  <path fill="#3B3B3B" d="m52.411499,24.2638l8.0428,0l1.0828,3.405l5.4137,0l-7.3627,-21.66978l-6.3105,0l-7.3625,21.66978l5.4136,0l1.0828,-3.405zm4.0214,-12.5986l2.5373,7.9559l-5.0735,0l2.5362,-7.9559z" clip-rule="evenodd" fill-rule="evenodd"/>
  <path fill="#3B3B3B" d="m74.527499,16.6496l0,5.479c0,1.3309 1.144,1.4557 3.1871,1.3309l0,4.2104c-6.0633,0.6184 -7.8264,-1.2072 -7.8264,-5.5413l0,-5.479l-2.475,0l0,-4.4579l2.475,0l0,-2.94202l4.6406,-1.3933l0,4.33422l3.187,0l0,4.4578l-3.1883,0l0,0.0012z"/>
  <path fill="#3B3B3B" d="m79.723599,5.07095l4.6405,0l0,22.59785l-4.6405,0l0,-22.59785z"/>
  <path fill="#3B3B3B" d="m98.993899,27.6699l4.6411,0l0,-15.4782l-4.6411,0l0,1.4546c-1.0205,-1.1766 -2.536,-1.888 -4.6089,-1.888c-4.0529,0 -7.3929,3.5604 -7.3929,8.1725c0,4.6122 3.3411,8.1726 7.3929,8.1726c2.0729,0 3.5884,-0.7126 4.6089,-1.8879l0,1.4544zm-3.6809,-11.5161c2.1342,0 3.6809,1.4557 3.6809,3.777c0,2.3215 -1.5467,3.7772 -3.6809,3.7772c-2.1351,0 -3.6818,-1.4546 -3.6818,-3.7772c0,-2.3225 1.5467,-3.777 3.6818,-3.777z" clip-rule="evenodd" fill-rule="evenodd"/>
  <path fill="#3B3B3B" d="m118.883999,23.026c0,3.5604 -3.095,5.0774 -6.435,5.0774c-3.093,0 -5.444,-1.1766 -6.651,-3.684l4.023,-2.2908c0.401,1.1765 1.267,1.8267 2.628,1.8267c1.114,0 1.67,-0.3404 1.67,-0.9599c0,-1.7031 -7.61,-0.8056 -7.61,-6.1609c0,-3.3743 2.847,-5.0762 6.063,-5.0762c2.505,0 4.733,1.1142 6.032,3.3119l-3.959,2.1365c-0.434,-0.8056 -1.053,-1.3627 -2.073,-1.3627c-0.804,0 -1.3,0.3098 -1.3,0.8668c0.002,1.7643 7.612,0.5878 7.612,6.3152z"/>
  <path fill="#3B3B3B" d="m31.1937,3.43269c-4.2886,-2.88318 -9.6964,-4.05977 -14.7853,-3.10931c-4.7252,0.8268 -9.09382,3.45911 -12.07489,7.21501c-2.821,3.55801 -4.43452,8.09241 -4.3286,12.64571c-0.02942,4.87 1.92422,9.6507 5.15478,13.2664c0.68966,-1.6336 1.57115,-3.18 2.5362,-4.6652c-0.29046,-0.0014 -0.58114,0.0025 -0.87177,0.0064c-0.65379,0.0088 -1.30732,0.0175 -1.95747,-0.0346c-0.24971,-0.0945 -0.36056,-0.334 -0.46932,-0.569c-0.04861,-0.105 -0.09681,-0.2092 -0.15679,-0.299c-0.93563,-1.8786 -1.54996,-3.9173 -1.7465,-6.009c1.82888,-0.0024 3.65542,-0.0024 5.48312,0.0023c0.14947,1.8268 0.39309,3.6428 0.79676,5.4319c0.2407,-0.3221 0.51053,-0.623 0.78007,-0.9236c0.4026,-0.449 0.80451,-0.8972 1.10771,-1.4143c-0.0348,-0.6645 -0.1192,-1.3236 -0.2035,-1.9821c-0.0468,-0.3662 -0.0937,-0.7323 -0.132,-1.0989c1.2523,-0.0294 2.5024,-0.0212 3.7547,-0.0131l0.0102,0.0001c0.8552,-0.7383 1.7449,-1.4374 2.6334,-2.1356c0.1093,-0.0858 0.2185,-0.1717 0.3277,-0.2576c-1.5993,-0.0192 -3.1973,-0.0153 -4.7951,-0.0114c-0.655,0.0016 -1.31,0.0032 -1.965,0.0032c0.0788,-2.4404 0.3683,-4.8866 1.0416,-7.2398c2.4679,0.0129 4.9347,0.0106 7.4026,0c0.0219,1.2448 0.0194,2.4896 0.0168,3.7344c-0.0016,0.7598 -0.0032,1.5196 0.0009,2.2793c0.7692,-0.5599 1.5459,-1.1145 2.3209,-1.6679l0.1152,-0.0823c0.0024,-0.5669 0.0025,-1.1335 0.0026,-1.7c0.0001,-0.8516 0.0002,-1.703 0.008,-2.5553c0.713,-0.0032 1.426,-0.0015 2.1389,0.0001c1.1123,0.0026 2.2244,0.0052 3.336,-0.0107c1.1722,-1.1695 2.2926,-2.40849 3.1258,-3.84888c-0.692,-1.57232 -1.5699,-3.04924 -2.5691,-4.44019c1.2345,0.58417 2.4044,1.29908 3.5001,2.11999c0.2259,-0.86567 0.3719,-1.74782 0.4613,-2.63703zm-19.1116,6.41886c1.6929,0.0197 3.3843,0.01553 5.0769,0.01137l0.0014,-0.00001c0.5299,-0.0013 1.0598,-0.00261 1.59,-0.00318c0.0006,-0.56136 0.0018,-1.12285 0.003,-1.6844l0,-0.00029l0,-0.00012c0.0041,-1.89824 0.0082,-3.79711 -0.0136,-5.69386c-3.3729,1.05763 -5.376,4.28001 -6.6577,7.37049zm9.107,-3.35036l0,-0.00018c-0.0057,-1.33674 -0.0113,-2.67357 0.0175,-4.00936c3.3671,1.0494 5.3761,4.27177 6.6307,7.36808c-2.2174,0.00471 -4.4358,0.00471 -6.6543,0.0024c0.0156,-1.11977 0.0108,-2.24028 0.0061,-3.36085l0,-0.00005l0,-0.00004zm-15.60691,3.3421c1.34048,0.03182 2.67978,0.0424 4.02029,-0.0024c0.72262,-2.13054 1.79592,-4.12568 3.13632,-5.92767c-2.83267,1.34384 -5.33478,3.37431 -7.15661,5.93007zm0.0593,9.63481l0.00004,0c0.7675,-0.0004 1.53509,-0.0007 2.30268,0.0017c0.0153,-2.4403 0.42486,-4.8466 0.88149,-7.2351l-0.40125,0.0022l-0.00009,0c-1.40559,0.008 -2.81119,0.0159 -4.21678,-0.0175c-1.15688,2.2331 -1.72767,4.7394 -1.84065,7.2422c1.09117,0.0076 2.18275,0.007 3.2745,0.0065l0.00003,0l0.00003,0z" clip-rule="evenodd" fill-rule="evenodd"/>
  <path fill="#3D6A37" d="m30.6665,10.5158c1.2368,-1.6948 1.9724,-3.70996 2.2867,-5.77813c3.4506,3.02805 5.915,7.19733 6.7,11.74003c1.1816,6.3234 -0.9674,13.1309 -5.5243,17.6595c-0.3072,-0.7715 -0.5814,-1.5701 -0.5767,-2.4086c-0.1212,-2.5816 1.5347,-4.8183 1.5841,-7.3787c-0.7108,2.9891 -3.047,5.2328 -3.852,8.1761c-0.393,1.2884 -0.1812,2.6311 0.1048,3.9172c-1.4264,0.9351 -2.9316,1.756 -4.5417,2.3332c-0.1541,-1.4852 -0.1282,-3.0151 0.3719,-4.4379c1.4029,-4.3341 4.6464,-7.7191 6.5153,-11.8259c0.4978,-1.0683 0.8003,-2.2143 0.9333,-3.3826c-0.5532,1.5582 -1.3287,3.0469 -2.4221,4.2977c-2.4149,2.8231 -5.4489,5.0844 -7.5803,8.1525c-1.7535,2.4251 -2.7504,5.3683 -2.834,8.3598c-1.597,0.1001 -3.2046,0.0942 -4.7828,-0.1673c0.4636,-2.6499 1.4004,-5.2163 2.7892,-7.5212c2.3785,-3.9702 5.7762,-7.1561 8.8655,-10.5516c2.6927,-2.9751 5.3255,-6.513 5.3679,-10.7035c-0.4696,1.6535 -1.1911,3.2435 -2.2527,4.605c-2.2525,2.9315 -5.3937,4.9643 -8.3112,7.1644c-3.3482,2.4556 -6.5917,5.1928 -8.9126,8.6778c-1.384,2.0328 -2.4338,4.2847 -3.1882,6.625c-1.75944,-0.7998 -3.35291,-1.9152 -4.80638,-3.18c1.28988,-3.2248 3.21761,-6.1869 5.63268,-8.6802c3.1175,-3.3401 6.9212,-5.9148 10.6061,-8.5789c2.8457,-2.0752 5.7667,-4.201 7.8275,-7.1137z"/>
  <path fill="#3B3B3B" d="m49.630499,37.8341c0.7191,0 1.3499,-0.2097 1.8665,-0.5783l0.7356,0.6573l0.692,-0.7715l-0.7014,-0.596c0.4036,-0.5358 0.6226,-1.1931 0.6226,-1.8856l0,-0.0176c0,-1.7278 -1.3135,-3.1564 -3.1976,-3.1564c-1.8831,0 -3.2153,1.4463 -3.2153,3.174l0,0.0177c0,1.7278 1.3134,3.1564 3.1976,3.1564zm0.0188,-2.1824l1.0509,0.8939c-0.2895,0.185 -0.6484,0.2992 -1.0509,0.2992c-1.218,0 -2.0854,-0.9916 -2.0854,-2.1836l0,-0.0176c0,-1.1931 0.8497,-2.166 2.0678,-2.166c1.2181,0 2.0854,0.9917 2.0854,2.1836l0,0.0176c0,0.43 -0.1048,0.8245 -0.3154,1.1484l-1.0604,-0.9646l-0.692,0.7891z" clip-rule="evenodd" fill-rule="evenodd"/>
  <path fill="#3B3B3B" d="m58.435799,35.1253l0,-3.5334l1.078,0l0,3.4898c0,1.1401 0.5873,1.7537 1.5512,1.7537c0.9544,0 1.5417,-0.5783 1.5417,-1.7101l0,-3.5334l1.0781,0l0,3.4815c0,1.8327 -1.0345,2.7536 -2.6374,2.7536c-1.596,-0.0011 -2.6116,-0.9209 -2.6116,-2.7017z"/>
  <path fill="#3B3B3B" d="m72.497399,31.5484l-0.9992,0l-2.6986,6.1821l1.1039,0l0.6308,-1.4817l2.8999,0l0.6225,1.4817l1.1393,0l-2.6986,-6.1821zm-0.5167,1.2884l1.0604,2.4557l-2.1113,0l1.0509,-2.4557z" clip-rule="evenodd" fill-rule="evenodd"/>
  <path fill="#3B3B3B" d="m80.627499,31.5919l0.9992,0l3.2858,4.2436l0,-4.2436l1.0604,0l0,6.1374l-0.9027,0l-3.3824,-4.3672l0,4.3672l-1.0603,0l0,-6.1374z"/>
  <path fill="#3B3B3B" d="m93.436499,32.5918l-1.9458,0l0,-0.9999l4.9778,0l0,0.9999l-1.9458,0l0,5.1387l-1.0862,0l0,-5.1387z"/>
  <path fill="#3B3B3B" d="m101.891699,35.1253l0,-3.5334l1.0773,0l0,3.4898c0,1.1401 0.588,1.7537 1.552,1.7537c0.954,0 1.541,-0.5783 1.541,-1.7101l0,-3.5334l1.079,0l0,3.4815c0,1.8327 -1.035,2.7536 -2.638,2.7536c-1.596,-0.0011 -2.6113,-0.9209 -2.6113,-2.7017z"/>
  <path fill="#3B3B3B" d="m112.999999,31.5919l1.148,0l1.866,2.9021l1.867,-2.9021l1.148,0l0,6.1374l-1.079,0l0,-4.4013l-1.936,2.8938l-0.035,0l-1.918,-2.8762l0,4.3837l-1.061,0l0,-6.1374z"/>
</svg>
