<svg width="150" height="52" viewBox="0 0 150 52" fill="none" xmlns="http://www.w3.org/2000/svg">
  <path fill-rule="evenodd" clip-rule="evenodd" d="M63.76 31.0191H74.042L75.4262 35.372H82.3472L72.9347 7.66919H64.8673L55.4549 35.372H62.3758L63.76 31.0191ZM68.901 14.9129L72.1448 25.0837H65.6588L68.901 14.9129Z" fill="white"/>
  <path d="M92.0334 21.285V28.2895C92.0334 29.9908 93.4959 30.1504 96.1077 29.9908V35.3735C88.3564 36.1641 86.1025 33.8302 86.1025 28.2895V21.285H82.9384V15.586H86.1025V11.8249L92.035 10.0437V15.5846H96.1093V21.2835H92.0334V21.285Z" fill="white"/>
  <path d="M98.6761 6.48279H104.609V35.3721H98.6761V6.48279Z" fill="white"/>
  <path fill-rule="evenodd" clip-rule="evenodd" d="M123.311 35.3736H129.244V15.5861H123.311V17.4456C122.007 15.9414 120.069 15.032 117.419 15.032C112.238 15.032 107.968 19.5837 107.968 25.4798C107.968 31.3761 112.24 35.9277 117.419 35.9277C120.069 35.9277 122.007 35.0168 123.311 33.5141V35.3736ZM118.606 20.6512C121.334 20.6512 123.311 22.5122 123.311 25.4798C123.311 28.4475 121.334 30.3086 118.606 30.3086C115.876 30.3086 113.899 28.449 113.899 25.4798C113.899 22.5106 115.876 20.6512 118.606 20.6512Z" fill="white"/>
  <path d="M148.739 29.4368C148.739 33.9883 144.783 35.9277 140.512 35.9277C136.558 35.9277 133.553 34.4236 132.01 31.218L137.152 28.2895C137.666 29.7936 138.773 30.6247 140.512 30.6247C141.936 30.6247 142.648 30.1896 142.648 29.3976C142.648 27.2204 132.919 28.3677 132.919 21.5214C132.919 17.2077 136.558 15.032 140.669 15.032C143.873 15.032 146.72 16.4564 148.381 19.266L143.319 21.9972C142.765 20.9673 141.974 20.2552 140.669 20.2552C139.642 20.2552 139.008 20.6512 139.008 21.3633C139.01 23.6188 148.739 22.1147 148.739 29.4368Z" fill="white"/>
  <path fill-rule="evenodd" clip-rule="evenodd" d="M39.8783 4.38839C34.3957 0.702503 27.4824 -0.801662 20.9767 0.413415C14.9359 1.4704 9.35102 4.83557 5.54 9.63715C1.9336 14.1858 -0.129134 19.9826 0.00627534 25.8035C-0.0313384 32.0294 2.46622 38.141 6.59619 42.7634C7.47786 40.675 8.60477 38.6981 9.8385 36.7994C9.46717 36.7976 9.09556 36.8026 8.72401 36.8076C7.8882 36.8188 7.05272 36.83 6.22157 36.7633C5.90234 36.6426 5.76062 36.3364 5.62158 36.0359C5.55944 35.9016 5.49783 35.7685 5.42115 35.6536C4.22502 33.252 3.43966 30.6458 3.1884 27.9717C5.52646 27.9686 7.86152 27.9686 10.1981 27.9747C10.3892 30.31 10.7006 32.6317 11.2167 34.9189C11.5244 34.507 11.8693 34.1224 12.2139 33.7381C12.7286 33.1642 13.2424 32.5912 13.63 31.9301C13.5855 31.0806 13.4777 30.238 13.3699 29.3962C13.31 28.928 13.2501 28.46 13.2011 27.9912C14.802 27.9537 16.4 27.9641 18.0009 27.9746L18.0142 27.9747C19.1075 27.0307 20.2449 26.137 21.3808 25.2445C21.5204 25.1348 21.6601 25.025 21.7997 24.9152C19.7552 24.8906 17.7123 24.8956 15.6698 24.9006C14.8323 24.9026 13.9949 24.9047 13.1575 24.9047C13.2583 21.7849 13.6284 18.6576 14.4891 15.6493C17.6441 15.6658 20.7976 15.6628 23.9526 15.6493C23.9807 17.2407 23.9774 18.8321 23.9741 20.4234C23.9721 21.3947 23.9701 22.366 23.9752 23.3373C24.9587 22.6214 25.9516 21.9124 26.9424 21.2049L27.0897 21.0998C27.0927 20.375 27.0928 19.6507 27.0929 18.9264C27.093 17.8378 27.0932 16.7494 27.1032 15.6598C28.0147 15.6557 28.9262 15.6578 29.8376 15.6599C31.2595 15.6632 32.6812 15.6665 34.1024 15.6462C35.6009 14.1511 37.0332 12.5672 38.0984 10.7257C37.2137 8.71568 36.0914 6.82757 34.814 5.04938C36.3923 5.79618 37.8878 6.71012 39.2885 7.75958C39.5774 6.65291 39.764 5.52516 39.8783 4.38839ZM15.4459 12.5943C17.61 12.6195 19.7723 12.6142 21.9361 12.6088L21.9373 12.6088C22.6149 12.6072 23.2927 12.6055 23.9707 12.6048C23.9714 11.8871 23.9729 11.1693 23.9745 10.4513V10.451V10.4509C23.9798 8.02418 23.985 5.59665 23.9571 3.17181C19.6451 4.5239 17.0844 8.64341 15.4459 12.5943ZM27.0883 8.31116V8.311C27.0811 6.60208 27.0738 4.89305 27.1107 3.18535C31.4152 4.52691 33.9835 8.64642 35.5874 12.6048C32.7527 12.6108 29.9167 12.6108 27.0806 12.6078C27.1005 11.1763 27.0944 9.74383 27.0883 8.31128V8.31122V8.31116ZM7.13634 12.5837C8.85002 12.6244 10.5622 12.638 12.2759 12.5807C13.1997 9.85697 14.5718 7.30637 16.2855 5.00269C12.6641 6.72067 9.46538 9.31644 7.13634 12.5837ZM3.02591 24.8926C4.42089 24.9024 5.81638 24.9017 7.21209 24.901C8.19331 24.9005 9.17463 24.9 10.156 24.9032C10.1755 21.7834 10.6991 18.7073 11.2829 15.6538L10.7699 15.6566C8.97292 15.6667 7.17597 15.6769 5.37902 15.6342C3.90005 18.489 3.17035 21.6931 3.02591 24.8926Z" fill="white"/>
  <path d="M39.2043 13.4435C40.7856 11.2768 41.7259 8.70061 42.1277 6.05664C46.539 9.92772 49.6895 15.2578 50.6931 21.0652C52.2036 29.1491 49.4564 37.8519 43.6307 43.6412C43.2381 42.655 42.8875 41.6341 42.8935 40.5621C42.7385 37.2617 44.8555 34.4024 44.9186 31.1291C44.0099 34.9504 41.0233 37.8187 39.9942 41.5815C39.4917 43.2286 39.7625 44.9451 40.1282 46.5893C38.3047 47.7848 36.3803 48.8342 34.3221 49.572C34.125 47.6734 34.1581 45.7175 34.7975 43.8986C36.5909 38.3578 40.7375 34.0304 43.1267 28.7802C43.7631 27.4145 44.1498 25.9495 44.3198 24.4559C43.6126 26.4479 42.6211 28.3511 41.2234 29.9501C38.1361 33.5592 34.2574 36.4501 31.5326 40.3724C29.2909 43.4726 28.0165 47.2352 27.9097 51.0596C25.8681 51.1876 23.8128 51.1801 21.7952 50.8458C22.388 47.458 23.5856 44.1771 25.361 41.2305C28.4017 36.155 32.7453 32.0821 36.6948 27.7413C40.1372 23.9379 43.5028 19.415 43.5571 14.0578C42.9567 16.1717 42.0344 18.2044 40.6773 19.945C37.7976 23.6926 33.7819 26.2913 30.0522 29.104C25.7717 32.2433 21.6252 35.7425 18.6582 40.1977C16.8889 42.7965 15.5468 45.6753 14.5824 48.6671C12.3331 47.6448 10.296 46.2188 8.43784 44.6018C10.0868 40.4793 12.5513 36.6925 15.6386 33.505C19.6241 29.235 24.4868 25.9435 29.1976 22.5377C32.8356 19.8848 36.5699 17.167 39.2043 13.4435Z" fill="white"/>
  <path fill-rule="evenodd" clip-rule="evenodd" d="M60.2047 48.3675C61.124 48.3675 61.9305 48.0995 62.5909 47.6282L63.5313 48.4684L64.4159 47.4822L63.5192 46.7203C64.0352 46.0353 64.3151 45.195 64.3151 44.3097V44.2872C64.3151 42.0783 62.636 40.252 60.2273 40.252C57.82 40.252 56.1168 42.1009 56.1168 44.3097V44.3323C56.1168 46.5412 57.7959 48.3675 60.2047 48.3675ZM60.2288 45.5775L61.5723 46.7202C61.2022 46.9567 60.7433 47.1027 60.2288 47.1027C58.6716 47.1027 57.5627 45.835 57.5627 44.3113V44.2887C57.5627 42.7634 58.649 41.5197 60.2063 41.5197C61.7634 41.5197 62.8723 42.7875 62.8723 44.3113V44.3338C62.8723 44.8834 62.7383 45.3877 62.469 45.8018L61.1134 44.5687L60.2288 45.5775Z" fill="white"/>
  <path d="M71.4616 44.9045V40.3875H72.8398V44.8488C72.8398 46.3063 73.5906 47.0907 74.8227 47.0907C76.043 47.0907 76.7937 46.3514 76.7937 44.9045V40.3875H78.1719V44.8382C78.1719 47.1811 76.8494 48.3585 74.8002 48.3585C72.76 48.357 71.4616 47.1811 71.4616 44.9045Z" fill="white"/>
  <path fill-rule="evenodd" clip-rule="evenodd" d="M89.438 40.3317H88.1607L84.7107 48.235H86.1219L86.9284 46.3408H90.6356L91.4315 48.235H92.888L89.438 40.3317ZM88.7775 41.9788L90.1331 45.1183H87.434L88.7775 41.9788Z" fill="white"/>
  <path d="M99.8316 40.3875H101.109L105.31 45.8124V40.3875H106.665V48.2335H105.511L101.187 42.6505V48.2335H99.8316V40.3875Z" fill="white"/>
  <path d="M116.207 41.6657H113.719V40.3875H120.083V41.6657H117.595V48.2351H116.207V41.6657Z" fill="white"/>
  <path d="M127.016 44.9045V40.3875H128.393V44.8488C128.393 46.3063 129.144 47.0907 130.377 47.0907C131.597 47.0907 132.348 46.3514 132.348 44.9045V40.3875H133.726V44.8382C133.726 47.1811 132.403 48.3585 130.355 48.3585C128.314 48.357 127.016 47.1811 127.016 44.9045Z" fill="white"/>
  <path d="M141.217 40.3875H142.684L145.07 44.0974L147.457 40.3875H148.924V48.2335H147.545V42.6069L145.07 46.3063H145.025L142.573 42.6294V48.2335H141.217V40.3875Z" fill="white"/>
</svg>
