<svg width="410" height="125" xmlns="http://www.w3.org/2000/svg">
 <!-- Created with Method Draw - http://github.com/duopixel/Method-Draw/ -->

 <g>
  <title>background</title>
  <rect x="-1" y="-1" width="412" height="127" id="canvas_background" fill="none"/>
  <g id="canvasGrid" display="none">
   <rect id="svg_3" width="100%" height="100%" x="0" y="0" stroke-width="0" fill="url(#gridpattern)"/>
  </g>
 </g>
 <g>
  <title>Layer 1</title>
  <text style="cursor: move;" fill="#ffffff" stroke="#000" stroke-width="0" x="138.5" y="65.4375" id="svg_1" font-size="81" font-family="Euphoria, sans-serif" text-anchor="start" xml:space="preserve" font-weight="bold">BOT</text>
  <text fill="#ffffff" stroke="#000" stroke-width="0" x="140.5" y="117.4375" id="svg_2" font-size="60" font-family="Euphoria, sans-serif" text-anchor="start" xml:space="preserve" font-weight="bold">MARKET</text>
  <g id="svg_9" stroke="null">
   <path d="m72.635008,37.583223a1.758413,1.758413 0 0 0 -1.656032,1.458818s-5.676744,36.658687 -6.263196,36.658687c-0.58598,0 -6.450502,-27.545324 -6.450502,-27.545324a1.75511,1.75511 0 0 0 -3.319612,-0.29818l-5.862635,13.516709l-3.344618,0c-0.691664,-1.444663 -2.154728,-2.449606 -3.863602,-2.449606a4.296246,4.296246 0 0 0 0,8.591548c1.782003,0 3.309704,-1.085149 3.960322,-2.630306l4.400043,0a1.75511,1.75511 0 0 0 1.610267,-1.057312s3.79519,-9.705949 4.209906,-9.705949c0.414716,0 7.220014,30.829551 7.220014,30.829551a1.75511,1.75511 0 0 0 1.708874,1.355492c0.888878,-0.025949 1.589979,-0.636463 1.73152,-1.459761c0,0 5.847537,-37.180974 6.352367,-37.180974c0.50483,0 6.370767,24.422455 6.370767,24.422455a1.75511,1.75511 0 0 0 1.608851,1.309727a1.761716,1.761716 0 0 0 1.735295,-1.137047l4.640663,-12.399949l3.094561,4.750593c0.264682,-2.213232 0.206178,-4.452413 -0.157111,-6.715184l-1.855133,-2.903481a1.753695,1.753695 0 0 0 -1.664996,-0.810087a1.760772,1.760772 0 0 0 -1.465423,1.131857l-3.938147,10.522169l-7.027518,-26.942831a1.763131,1.763131 0 0 0 -1.702268,-1.31303c-0.024062,0 -0.048596,0.000472 -0.072658,0.001415l0.000001,0z" fill="#ffffff" id="svg_7" stroke="null"/>
   <path d="m64.000054,101.551333c-21.811492,0 -39.493285,-17.782759 -39.493285,-39.718335c0,-21.936048 17.681793,-39.719279 39.493285,-39.719279s39.493285,17.782287 39.493285,39.718807c0,21.935576 -17.681793,39.718335 -39.493285,39.718335m0,-98.028573c-33.35323,0 -60.390893,26.136518 -60.390893,58.377706c0,32.240716 27.037663,58.377234 60.390893,58.377234s60.390893,-26.136518 60.390893,-58.377234c0,-32.241188 -27.037663,-58.377706 -60.390893,-58.377706" fill="#ffffff" id="svg_8" stroke="null"/>
  </g>
 </g>
</svg>