<svg width="410" height="125" xmlns="http://www.w3.org/2000/svg">
 <!-- Created with Method Draw - http://github.com/duopixel/Method-Draw/ -->

 <g>
  <title>background</title>
  <rect fill="none" id="canvas_background" height="127" width="412" y="-1" x="-1"/>
  <g display="none" id="canvasGrid">
   <rect fill="url(#gridpattern)" stroke-width="0" y="0" x="0" height="100%" width="100%" id="svg_3"/>
  </g>
 </g>
 <g>
  <title>Layer 1</title>
  <text style="cursor: move;" font-weight="bold" xml:space="preserve" text-anchor="start" font-family="Euphoria, sans-serif" font-size="81" id="svg_1" y="65.4375" x="139.5" stroke-width="0" stroke="#000" fill="#c4222f">BOT</text>
  <text font-weight="bold" xml:space="preserve" text-anchor="start" font-family="Euphoria, sans-serif" font-size="60" id="svg_2" y="117.4375" x="141.5" stroke-width="0" stroke="#000" fill="#7f7f7f">MARKET</text>
  <g id="svg_9" stroke="null">
   <path d="m73.77797,37.84715a1.78753,1.78753 0 0 0 -1.68345,1.48298s-5.77074,37.2657 -6.3669,37.2657c-0.59569,0 -6.55732,-28.00144 -6.55732,-28.00144a1.78417,1.78417 0 0 0 -3.37458,-0.30311l-5.95971,13.74052l-3.4,0c-0.70312,-1.46858 -2.19041,-2.49016 -3.92758,-2.49016a4.36739,4.36739 0 0 0 0,8.73381c1.81152,0 3.36451,-1.10312 4.0259,-2.67386l4.4729,0a1.78417,1.78417 0 0 0 1.63693,-1.07482s3.85804,-9.86667 4.27962,-9.86667c0.42158,0 7.33957,31.34004 7.33957,31.34004a1.78417,1.78417 0 0 0 1.73717,1.37794c0.9036,-0.02638 1.61631,-0.647 1.76019,-1.48393c0,0 5.94436,-37.79664 6.45755,-37.79664c0.51319,0 6.47626,24.82686 6.47626,24.82686a1.78417,1.78417 0 0 0 1.63549,1.33141a1.79089,1.79089 0 0 0 1.76403,-1.15587l4.71751,-12.60528l3.1458,4.82926c0.26906,-2.24988 0.20959,-4.52614 -0.15971,-6.82638l-1.88585,-2.95156a1.78273,1.78273 0 0 0 -1.69257,-0.8235a1.78993,1.78993 0 0 0 -1.48969,1.1506l-4.00335,10.6964l-7.14389,-27.38896a1.79233,1.79233 0 0 0 -1.73045,-1.33478c-0.02446,0 -0.0494,0.00048 -0.07386,0.00144l-0.00001,0z" fill="#8D8E92" id="svg_7" stroke="null"/>
   <path d="m65.00004,102.87448c-22.17266,0 -40.14724,-18.07721 -40.14724,-40.37601c0,-22.29928 17.97458,-40.37698 40.14724,-40.37698s40.14724,18.07674 40.14724,40.3765c0,22.2988 -17.97458,40.37601 -40.14724,40.37601m0,-99.65178c-33.90551,0 -61.39088,26.5693 -61.39088,59.34436c0,32.77457 27.48537,59.34387 61.39088,59.34387s61.39088,-26.5693 61.39088,-59.34387c0,-32.77506 -27.48537,-59.34436 -61.39088,-59.34436" fill="#C4222F" id="svg_8" stroke="null"/>
  </g>
 </g>
</svg>