<svg width="370" height="125" xmlns="http://www.w3.org/2000/svg">
 <!-- Created with Method Draw - http://github.com/duopixel/Method-Draw/ -->

 <g>
  <title>background</title>
  <rect fill="none" id="canvas_background" height="127" width="372" y="-1" x="-1"/>
  <g display="none" id="canvasGrid">
   <rect fill="url(#gridpattern)" stroke-width="0" y="0" x="0" height="100%" width="100%" id="svg_3"/>
  </g>
 </g>
 <g>
  <title>Layer 1</title>
  <text font-weight="bold" xml:space="preserve" text-anchor="start" font-family="Euphoria, sans-serif" font-size="81" id="svg_1" y="65.4375" x="147.5" stroke-width="0" stroke="#000" fill="#ffffff">BOT</text>
  <text font-weight="bold" xml:space="preserve" text-anchor="start" font-family="Euphoria, sans-serif" font-size="60" id="svg_2" y="117.4375" x="149.5" stroke-width="0" stroke="#000" fill="#ffffff">GARCH</text>
  <g stroke="null" id="svg_23">
   <g stroke="null" transform="matrix(1.3640678796669918,0,0,1.3640678796669918,-37.59819547505299,-38.76527841185589) " id="svg_20" fill="#303030">
    <path fill="#ffffff" stroke="null" id="svg_21" d="m122.338155,73.144015c-2.3,-5.2 -5.1,-6.9 -8.6,-9.5c-1.3,-0.8 -2.4,-1.8 -3.3,-2.9c-0.4,-0.6 -0.6,-1.3 -0.6,-2.1c0,-0.9 0.2,-1.8 0.5,-2.6c1.2,-3.5 1.9,-7.1 1.9,-10.8c0.1,-5.1 -2,-13.3 -8.4,-13.3c-0.9,0 -1.8,0.1 -2.6,0.4c-1.5,0.6 -2.7,1.5 -3.7,2.7c-1.3,1.4 -5,7.1 -6.3,7.6c-0.3,0.1 -0.6,0.1 -0.8,0c-4.3,-1.4 -8.7,-2.2 -13.3,-2.2c-4.5,0 -9,0.8 -13.3,2.2c-0.3,0.1 -0.6,0.1 -0.8,0c-1.3,-0.5 -5,-6.2 -6.3,-7.6c-1,-1.2 -2.3,-2.1 -3.7,-2.7c-0.9,-0.3 -1.8,-0.4 -2.7,-0.4c-6.4,0 -8.5,8.2 -8.5,13.3c0,3.7 0.7,7.3 1.9,10.8c0.3,0.9 0.5,1.7 0.5,2.6c0,0.7 -0.2,1.4 -0.6,2.1c-0.9,1.2 -2,2.2 -3.3,2.9c-3.4,2.6 -6.2,4.3 -8.5,9.5c-0.6,1.6 -0.9,3.2 -0.9,4.9c0,2.8 1,5.2 2.5,8.1c3.2,6.5 9.7,14 14.1,17.8c8.5,7.5 19.2,12.8 28.5,13.3l2,0c9.3,-0.6 20,-5.9 28.5,-13.3c4.4,-3.9 10.9,-11.3 14.1,-17.8c1.4,-2.9 2.5,-5.3 2.5,-8.1c0.1,-1.7 -0.2,-3.3 -0.8,-4.9zm-22.5,-28.6c1.3,-1.5 4.3,-3.5 6.2,-2.2c2.2,1.3 1.9,6.1 1.5,8.3c-0.3,1.4 -0.7,2.8 -1.3,4.1c-0.5,1.1 -0.9,2.2 -1.4,3.5c-2.3,-1.6 -4.3,-3.7 -5.9,-6c-1.6,-2.7 -1.1,-5.5 0.9,-7.7zm-5.2,11.1c2.6,1.5 4.2,4.2 4.4,7.2c0.1,1.1 -0.2,2.2 -0.9,3.1c-0.4,0.5 -1,0.7 -1.7,0.8c1.5,-2 1.4,-4.7 -0.2,-6.6c-0.9,-1.2 -2.3,-1.9 -3.8,-2c-3.6,-0.1 -6,2.7 -6,6.2c-0.4,-0.6 -0.7,-1.2 -1,-1.9c-0.8,-2.3 -0.5,-5.2 1.2,-6.8c2.2,-1.6 5.9,-1.2 8,0zm-28.5,-9.5c0.4,-0.5 1,-0.9 1.6,-1c3,-0.8 6.1,-1.3 9.1,-1.3l0.4,0c3.1,0 6.2,0.5 9.1,1.3c0.6,0.1 1.2,0.5 1.6,1c0.1,0.3 0.1,0.5 0,0.8c-0.8,1 -1.8,1.9 -2.8,2.6c-3.3,2.7 -5.4,4.8 -6.5,9.2c-0.6,2.2 -0.5,4.5 0.2,6.7c1.1,3.5 3.7,5.6 4.9,8.8c0.7,1.5 0.8,3.2 0.2,4.8c-1.1,2.3 -4.4,2.7 -6.6,2.7l-0.4,0c-2.3,0 -5.5,-0.4 -6.6,-2.7c-0.6,-1.5 -0.5,-3.3 0.2,-4.8c1.2,-3.2 3.7,-5.3 4.9,-8.8c0.7,-2.2 0.8,-4.5 0.2,-6.7c-1.1,-4.3 -3.2,-6.5 -6.5,-9.2c-1,-0.8 -2,-1.7 -2.8,-2.6c-0.3,-0.2 -0.3,-0.5 -0.2,-0.8zm-6.7,9.5c2.1,-1.3 5.8,-1.6 7.8,0.1c1.8,1.5 2,4.4 1.2,6.8c-0.2,0.7 -0.5,1.3 -1,1.9c0,-3.5 -2.4,-6.4 -6,-6.2c-1.5,0.1 -2.9,0.8 -3.8,2c-1.6,1.9 -1.7,4.6 -0.2,6.6c-0.6,0 -1.2,-0.3 -1.7,-0.8c-0.7,-0.9 -1,-2 -0.9,-3.1c0.4,-3 2.1,-5.7 4.6,-7.3zm-11.4,-13.4c2,-1.2 5,0.8 6.2,2.2c2,2.3 2.5,5.1 0.9,7.7c-1.6,2.3 -3.6,4.4 -5.9,6c-0.5,-1.3 -0.9,-2.5 -1.4,-3.5c-0.6,-1.3 -1,-2.7 -1.3,-4.1c-0.4,-2.2 -0.7,-6.9 1.5,-8.3zm70.4,37.9c-1.4,4 -5.9,10.3 -9.4,14.7c-3.7,4.6 -8.3,8.6 -13.3,11.7c-5.1,3.1 -12.5,6.1 -18.6,6.3c-6.1,-0.2 -13.5,-3.2 -18.6,-6.3s-9.6,-7 -13.3,-11.7c-3.6,-4.4 -8,-10.7 -9.4,-14.7c-0.6,-1.6 -0.6,-3.4 0,-5c1.1,-2.9 3.1,-5.4 5.7,-7.2c0.7,-0.6 1.6,-0.9 2.5,-0.9c2,0.3 3.1,3.1 3.9,4.7c-0.5,0.5 -1.1,1 -1.7,1.6c-3.4,3.7 -2.9,8.5 -0.8,13c2.9,6 8.6,12 13.5,16.4c-3.5,-8.3 -2.2,-19 6.4,-23.9c-0.9,10.3 22.8,12.1 23.6,-0.1c8.5,4.8 9.9,15.5 6.4,23.9c5,-4.3 10.7,-10.3 13.6,-16.4c2.1,-4.6 2.6,-9.3 -0.8,-13c-0.5,-0.6 -1.1,-1 -1.7,-1.6c0.8,-1.6 1.9,-4.4 3.9,-4.7c0.9,0 1.8,0.3 2.5,0.9c2.6,1.8 4.6,4.3 5.7,7.2c0.5,1.7 0.5,3.5 -0.1,5.1z"/>
    <path fill="#ffffff" stroke="null" id="svg_22" d="m85.138155,93.944015c-1,0.3 -2,0.4 -3,0.4c-1.6,0 -3,-0.9 -3.8,-2.3c-0.1,-0.3 -0.4,-0.3 -1.2,-0.3l-0.4,0c-0.8,0 -1,0 -1.2,0.3c-0.7,1.4 -2.2,2.3 -3.8,2.3c-1,0.1 -2,-0.1 -3,-0.4c-3.4,-1.1 -3.6,-1.5 -7.4,-1.5c3.5,8.1 9.1,14.2 15.4,14.2l0.2,0c6.3,0 11.8,-6 15.4,-14.2c-3.6,0 -3.8,0.4 -7.2,1.5zm-9,11.1c-0.7,-0.1 -1.3,-0.2 -1.9,-0.4c-0.6,-0.1 -1.1,-0.4 -1.6,-0.7c-0.3,-0.2 -0.5,-0.5 -0.6,-0.8c-0.9,-2.1 -1.7,-4.4 -2.3,-6.6c2.3,0.3 4.6,-0.3 6.5,-1.5l-0.1,10zm6,-2c-0.1,0.3 -0.4,0.6 -0.6,0.8c-0.5,0.3 -1.1,0.6 -1.6,0.7c-0.6,0.2 -1.3,0.4 -1.9,0.4l0,-10c1.9,1.3 4.2,1.8 6.5,1.5c-0.7,2.3 -1.4,4.5 -2.4,6.6z"/>
   </g>
  </g>
 </g>
</svg>