<svg width="550" height="125" xmlns="http://www.w3.org/2000/svg">
 <!-- Created with Method Draw - http://github.com/duopixel/Method-Draw/ -->

 <g>
  <title>background</title>
  <rect x="-1" y="-1" width="552" height="127" id="canvas_background" fill="none"/>
  <g id="canvasGrid" display="none">
   <rect id="svg_3" width="100%" height="100%" x="0" y="0" stroke-width="0" fill="url(#gridpattern)"/>
  </g>
 </g>
 <g>
  <title>Layer 1</title>
  <text fill="#ffffff" stroke="#000" stroke-width="0" x="150.5" y="65.4375" id="svg_1" font-size="81" font-family="Euphoria, sans-serif" text-anchor="start" xml:space="preserve" font-weight="bold">GENERAL</text>
  <text fill="#ffffff" stroke="#000" stroke-width="0" x="152.5" y="117.4375" id="svg_2" font-size="60" font-family="Euphoria, sans-serif" text-anchor="start" xml:space="preserve" font-weight="bold">SYSTEM</text>
  <g stroke="null" id="svg_10">
   <path stroke="null" id="svg_7" fill="#ffffff" d="m62.557905,53.426206c-5.231063,8.793708 -10.242727,17.309346 -15.358914,25.76089c-1.313929,2.169831 -1.964237,3.937349 -0.914573,6.695366c2.898038,7.619307 -1.190178,15.034006 -8.873579,17.04656c-7.246082,1.898664 -14.305799,-2.863526 -15.743478,-10.621375c-1.273993,-6.866448 4.05469,-13.597806 11.62568,-14.671135c0.634038,-0.090718 1.281882,-0.101071 2.347815,-0.180943l11.516227,-19.311053c-7.243124,-7.202202 -11.55419,-15.620713 -10.600175,-26.053257c0.674467,-7.37427 3.574478,-13.747194 8.874565,-18.970369c10.151516,-10.002621 25.638618,-11.622229 37.591671,-3.944744c11.479743,7.374763 16.737429,21.739726 12.255774,34.034449c-3.379237,-0.916052 -6.78214,-1.839993 -10.522769,-2.854652c1.407112,-6.83588 0.366322,-12.974121 -4.244014,-18.232794c-3.045948,-3.471927 -6.954701,-5.291706 -11.398886,-5.962229c-8.910063,-1.345976 -17.657919,4.378119 -20.253729,13.123509c-2.946356,9.924722 1.513113,18.032623 13.698384,24.142268l0,-0.000493z"/>
   <path stroke="null" id="svg_8" fill="#ffffff" d="m77.497249,43.026695c3.68541,6.501605 7.427518,13.101323 11.1361,19.640398c18.745053,-5.799528 32.878291,4.577303 37.948626,15.68678c6.124436,13.419821 1.937613,29.314167 -10.089887,37.593643c-12.345506,8.498875 -27.958331,7.046898 -38.896232,-3.870789c2.787599,-2.333518 5.589004,-4.677389 8.582197,-7.181495c10.803304,6.997101 20.25225,6.667756 27.267101,-1.618129c5.98195,-7.068591 5.852283,-17.608123 -0.303214,-24.528311c-7.103596,-7.985629 -16.618609,-8.229187 -28.120045,-0.563535c-4.771065,-8.464363 -9.624959,-16.86118 -14.245156,-25.386679c-1.557979,-2.873387 -3.277673,-4.540819 -6.789042,-5.148727c-5.863622,-1.016631 -9.649117,-6.05196 -9.876405,-11.693225c-0.223343,-5.579143 3.063697,-10.622361 8.201084,-12.587091c5.08907,-1.946981 11.061159,-0.37569 14.484276,3.951154c2.79746,3.535035 3.686396,7.513798 2.214204,11.873675c-0.409216,1.215815 -0.939225,2.392188 -1.513606,3.832826l0,-0.000493z"/>
   <path stroke="null" id="svg_9" fill="#ffffff" d="m86.305748,96.175478l-22.566046,0c-2.162929,8.896258 -6.834894,16.078739 -14.884617,20.646182c-6.258047,3.549826 -13.002717,4.753316 -20.181254,3.594199c-13.217185,-2.131375 -24.024433,-14.029701 -24.975984,-27.427336c-1.076781,-15.177478 9.355271,-28.668296 23.260235,-31.698467c0.959932,3.486225 1.930218,7.005976 2.89015,10.483819c-12.75768,6.509 -17.173269,14.710084 -13.602736,24.965137c3.143075,9.024446 12.07138,13.97103 21.765856,12.058069c9.90007,-1.95339 14.89152,-10.181098 14.282133,-23.385465c9.385345,0 18.778579,-0.097127 28.164911,0.047824c3.665195,0.057685 6.494702,-0.322443 9.255678,-3.55377c4.545749,-5.31685 12.912985,-4.837131 17.808787,0.184394c5.003282,5.131964 4.763669,13.389253 -0.530995,18.304776c-5.108298,4.742962 -13.178729,4.489544 -17.958175,-0.62122c-0.982119,-1.053115 -1.756178,-2.303936 -2.727943,-3.598143z"/>
  </g>
 </g>
</svg>